<?xml version="1.0" encoding="utf-8"?>
<!-- Generator: Adobe Adobe Illustrator 29.2.0, SVG Export Plug-In . SVG Version: 6.00 Build 0)  -->
<svg version="1.1" id="Layer_1" xmlns="http://www.w3.org/2000/svg" xmlns:xlink="http://www.w3.org/1999/xlink" x="0px" y="0px"
	 width="301.8px" height="356.3px" viewBox="0 0 301.8 356.3" style="enable-background:new 0 0 301.8 356.3;" xml:space="preserve"
	>
<style type="text/css">
	.st0{clip-path:url(#SVGID_00000056386002130846836260000002990354748790165403_);}
	.st1{fill:#FF98A2;}
	.st2{fill:none;}
	.st3{clip-path:url(#SVGID_00000076581703025303984880000016525869899672183206_);}
	.st4{clip-path:url(#SVGID_00000183227298723156294870000006694677226207569329_);}
	.st5{clip-path:url(#SVGID_00000059300310244158755260000017360116966737742211_);}
	.st6{clip-path:url(#SVGID_00000101093305406954813850000006646296107110516103_);}
	.st7{clip-path:url(#SVGID_00000105416401969973523690000017244491612201940394_);}
	.st8{clip-path:url(#SVGID_00000149378995435432243770000007984990677968729270_);}
	.st9{clip-path:url(#SVGID_00000103237429029174268020000012600006072575788216_);}
	.st10{clip-path:url(#SVGID_00000175306015694877550370000003479210967112244887_);}
	.st11{clip-path:url(#SVGID_00000178915669448127433280000005397242649095991688_);}
</style>
<g>
	<g>
		<g>
			<defs>
				<rect id="SVGID_00000005241474305921574940000010011139703361961892_" x="-15.5" y="1.1" width="1360" height="335.4"/>
			</defs>
			<clipPath id="SVGID_00000002360933156930222440000010174580318796725405_">
				<use xlink:href="#SVGID_00000005241474305921574940000010011139703361961892_"  style="overflow:visible;"/>
			</clipPath>
			<g style="clip-path:url(#SVGID_00000002360933156930222440000010174580318796725405_);">
				<path class="st1" d="M250.7,1.5v25c0,0.7-0.2,1.3-0.6,1.8c-0.4,0.5-1,0.9-1.6,1.1s-1.3,0.2-1.9-0.1c-0.6-0.2-1.1-0.6-1.5-1.1
					c-3.6-5.7-8.6-10.3-14.5-13.5s-12.5-4.9-19.2-4.9H164l-41.4,41.6l-16.1,16.1c-0.7,0.7-1.6,1.2-2.6,1.4c-0.9,0.2-1.9,0.1-2.9-0.3
					c-0.9-0.4-1.7-1.1-2.2-1.9c-0.6-0.8-0.9-1.8-0.9-2.8V31.3c-0.4-0.4-0.7-0.8-1-1.2v0.4c0,0.7-0.2,1.3-0.6,1.9
					c-0.5,0.5-1.1,0.9-1.7,1c-0.6,0.2-1.2,0.1-1.7-0.1c-15.4,13.1-31.1,26-46.7,38.8c0.4,1.1,0.7,2.2,0.8,3.5
					c0.4,3.2,0.6,6.5,0.6,9.8v185.5c1.1-0.1,2.2-0.2,3.3-0.3c0.2-0.3,0.4-0.5,0.6-0.8l48.1-48.2c0.7-0.7,1.6-1.2,2.6-1.4
					s2-0.1,2.9,0.3c0.9,0.4,1.7,1,2.3,1.9c0.5,0.8,0.8,1.8,0.8,2.8V268c1.1,0,2.3,0.1,3.4,0.3l41.7-41.7c3.4-3.4,5.3-8,5.3-12.8
					V85.9c0-0.7,0.1-1.3,0.3-1.9c0.3-0.6,0.7-1.2,1.1-1.7L183.4,59c4.7,0.1,9.3,2,12.7,5.4c3.4,3.4,5.2,8,5.2,12.7v36.5
					c0,1.5-0.3,3.1-0.9,4.6c-0.6,1.4-1.5,2.8-2.6,3.9l-3.3,3.3l0.6,0.8l56.6-56.5V1.5H250.7z M108.2,211.6L98,221.8v-77.5l10.2-10.2
					V211.6z M174.7,65c-0.2,1-0.7,1.9-1.4,2.6l-66.7,66.7c-0.7,0.7-1.6,1.2-2.6,1.4c-0.9,0.2-2,0.1-2.9-0.3c-0.9-0.4-1.7-1-2.2-1.9
					c-0.6-0.8-0.9-1.8-0.9-2.8V77.4L116.4,59h53.4c1,0,1.9,0.3,2.8,0.9c0.8,0.5,1.4,1.3,1.8,2.2C174.8,63,174.9,64.1,174.7,65z"/>
			</g>
		</g>
	</g>
	<g>
		<polygon class="st2" points="108.2,223.3 98,213.1 98,135.6 108.2,145.8 		"/>
		<path class="st2" d="M174.7,292.4c-0.2-1-0.7-1.9-1.4-2.6l-9.1-9.1c0.4,0.5,0.5,1.4,0.2,1.9c-0.3,0.7-1,1.2-1.8,1.2
			c-1.5,0-2.9-0.4-4.1-1.1c-0.7,0.3-1.6,0.1-2.2-0.5c-0.7-0.7-1.5-1.3-2.1-1.9c-0.4-0.4-0.6-1-0.6-1.6c-0.2-0.5-0.5-0.9-0.7-1.4l0,0
			c-0.2-0.3-0.3-0.6-0.4-0.9c-0.2-0.5-0.3-1-0.3-1.5s0.2-1,0.6-1.4c0.4-0.4,0.9-0.6,1.4-0.6h0.1c0.3-0.1,0.6-0.2,0.9-0.2
			c0.5,0,1.1,0.2,1.4,0.6c1.5,1.5,2.9,2.9,4.3,4.5c0.2,0.2,0.3,0.4,0.4,0.6c0.8,0.7,1.7,1.3,2.5,2l-57.2-57.3
			c-0.7-0.7-1.6-1.2-2.6-1.4c-0.9-0.2-2-0.1-2.9,0.3c-0.9,0.4-1.7,1-2.2,1.9c-0.6,0.8-0.9,1.8-0.9,2.8V280l18.4,18.4h53.4
			c1,0,1.9-0.3,2.8-0.9c0.8-0.5,1.4-1.3,1.8-2.2C174.8,294.4,174.9,293.3,174.7,292.4z"/>
		<path class="st2" d="M324.6,327.2c1.5-10.9,6-20.8,13.8-28.7c2.1-2.1,4-4.3,5.9-6.5c1.6-2.1,3.1-4.2,4.7-6.3
			c4.4-7.5,10.4-13.5,17.9-17.9c7.8-4.5,16.2-6.8,25.2-6.8c3.5,0,7,0.4,10.3,1.1c-0.2-1.9-0.4-3.7-0.7-5.6
			c-7.9-54.2-22.1-107.4-42.8-158.2c-5.9-13.7-12.3-27.1-19.2-40.3c-6.2-11.9-8-24-5.4-36.9H-15.5v335.4h344.5
			C324.3,347.5,323.3,336.8,324.6,327.2z M251.7,355.9h-1v-25c0-0.7-0.2-1.3-0.6-1.8c-0.4-0.5-1-0.9-1.6-1.1
			c-0.6-0.2-1.3-0.2-1.9,0.1c-0.6,0.2-1.1,0.6-1.5,1.1c-3.6,5.7-8.6,10.3-14.5,13.5c-5.9,3.2-12.5,4.9-19.2,4.9H164L122.6,306
			l-16.1-16.1c-0.7-0.7-1.6-1.2-2.6-1.4c-0.9-0.2-1.9-0.1-2.9,0.3c-0.9,0.4-1.7,1.1-2.2,1.9c-0.6,0.8-0.9,1.8-0.9,2.8v32.6
			c-0.4,0.4-0.7,0.8-1,1.2v-0.4c0-0.7-0.2-1.3-0.6-1.9c-0.4-0.4-0.8-0.6-1.2-0.8c2.7,3.2,3.2,8.5,0.2,11.6c-0.8,0.8-2,0.7-2.8,0
			s-0.7-2.1,0-2.8l0.1-0.1c0,0,0.1-0.1,0.1-0.1c0,0,0-0.1,0.1-0.1c0.1-0.2,0.2-0.4,0.3-0.6c-0.7-0.3-1.3-1-1.2-1.8
			c0.1-0.4,0.1-0.9,0.1-1.3c0-0.1,0-0.3,0-0.3c0-0.1,0-0.2-0.1-0.4c0-0.1-0.1-0.3-0.1-0.4v-0.1c0-0.1-0.1-0.2-0.1-0.3
			c-0.1-0.3-0.3-0.5-0.4-0.7c-0.1-0.1-0.2-0.2-0.2-0.3l-0.1-0.1c-0.2-0.2-0.4-0.4-0.6-0.6l-0.1-0.1c-0.9-0.1-1.5-0.8-1.7-1.5
			c-0.1,0-0.1,0-0.2-0.1c-1.1-0.4-1.7-1.3-1.4-2.5c0.2-0.7,0.7-1.2,1.4-1.4c-13.9-11.8-28-23.4-42.1-34.9c0.4-1.1,0.7-2.2,0.8-3.5
			c0.4-3.2,0.6-6.5,0.6-9.8V86.5c1.1,0.1,2.2,0.2,3.3,0.3c0.2,0.3,0.4,0.5,0.6,0.8l48.1,48.2c0.7,0.7,1.6,1.2,2.6,1.4
			c1,0.2,2,0.1,2.9-0.3c0.9-0.4,1.7-1,2.3-1.9c0.5-0.8,0.8-1.8,0.8-2.8V89.4c1.1,0,2.3-0.1,3.4-0.3l41.7,41.7
			c3.4,3.4,5.3,8,5.3,12.8v127.9c0,0.7,0.1,1.3,0.3,1.9c0.1,0.2,0.2,0.4,0.4,0.6c0.1-0.4,0.3-0.7,0.5-1c0.3-0.4,0.9-0.6,1.4-0.6h0.8
			c0.3,0,0.5,0,0.8,0.2c0.2,0.1,0.5,0.2,0.6,0.4c0.7,0.9,1.5,1.9,2.3,2.7c0.4,0.4,0.6,0.9,0.6,1.4c0,0.4-0.2,0.9-0.4,1.2
			c-0.1,0.2-0.3,0.4-0.6,0.5c-0.2,0.1-0.3,0.1-0.5,0.2c-0.3,0.1-0.5,0.1-0.8,0l19.3,19.2c4.7-0.1,9.3-2,12.7-5.4
			c3.4-3.4,5.2-8,5.2-12.7v-36.5c0-1.5-0.3-3.1-0.9-4.6c-0.6-1.4-1.5-2.8-2.6-3.9l-3.3-3.3l0.6-0.8l56.6,56.5V355.9z M309,237.9
			c-2.8-0.9-5.7-1.8-8.6-2.6c-0.6,0.4-1.2,0.7-1.8,1c2.9,1.9,5.8,3.8,8.6,5.7c2.1,1.4,0.1,4.9-2,3.5c-4.7-3.2-9.5-6.2-14.2-9.4
			c-0.7,0.6-1.5,1.2-2.3,1.8c-2.2,1.4-4.2-2.1-2-3.5l0.9-0.6c-3.3-2.2-6.5-4.5-9.7-6.9c-1.6-1.2-1-3.5,1-3.7
			c2.7-0.3,5.5-0.2,8.2,0.1c1.1-3.1,3.3-5.7,6.6-6.6c1.1-0.3,2.1,0.4,2.5,1.4c0.5,1.5,0.7,3,0.7,4.5c0.6,0.1,1.1,0.3,1.7,0.7
			c0.4-0.4,0.7-0.8,0.8-1.4v-0.1c0,0,0,0,0-0.1v-0.1c-0.1-0.5-0.1-0.4-0.3-0.8c-1-1.6,1.1-3.9,2.7-2.7c3.6,2.5,4.7,6.9,3.4,10.9
			c-0.1,0.3-0.2,0.6-0.3,0.9c2.2,1.4,4.3,3.1,6.1,4.9C312.4,235.9,311,238.5,309,237.9z"/>
		<path class="st1" d="M155.4,271.9v0.8c0.4,0.1,0.9,0.3,1.2,0.6c1.5,1.5,2.9,2.9,4.3,4.5c0.2,0.2,0.3,0.4,0.4,0.6
			c0.6,0.5,1.2,0.9,1.8,1.4v-0.1L155.4,271.9z"/>
		<path class="st1" d="M197.8,235.3c1.1,1.1,2,2.5,2.6,3.9c0.6,1.5,0.9,3.1,0.9,4.6v36.5c0,4.7-1.8,9.3-5.2,12.7
			c-3.4,3.4-8,5.3-12.7,5.4l-19.3-19.2l0,0c-0.3,0-0.5-0.1-0.7-0.2c-0.1,0-0.1-0.1-0.2-0.2v0.1c0,0.2,0,0.5-0.1,0.7l0.7,0.7
			c0.1,0.1,0.1,0.1,0.2,0.2c0.1,0.1,0.1,0.2,0.2,0.2l9.1,9.1c0.7,0.7,1.2,1.6,1.4,2.6c0.2,0.9,0.1,2-0.3,2.9c-0.4,0.9-1,1.7-1.8,2.2
			c-0.9,0.6-1.8,0.9-2.8,0.9h-53.4L98,280v-53.3c0-1,0.3-2,0.9-2.8c0.5-0.9,1.3-1.5,2.2-1.9c0.9-0.4,2-0.5,2.9-0.3
			c1,0.2,1.9,0.7,2.6,1.4l48.8,48.8V151c0-6.7-0.7-13.4-2.1-20.2l-41.7-41.7c-1.1,0.1-2.3,0.2-3.4,0.3v42.8c0,1-0.3,2-0.8,2.8
			c-0.6,0.9-1.4,1.5-2.3,1.9s-1.9,0.5-2.9,0.3s-1.9-0.7-2.6-1.4L51.5,87.6c-0.2-0.2-0.4-0.5-0.6-0.8c-1.1-0.1-2.2-0.2-3.3-0.3V272
			c0,3.3-0.2,6.6-0.6,9.8c-0.2,1.2-0.5,2.4-0.8,3.5c14.1,11.5,28.2,23.1,42.1,34.9c0.3-0.1,0.7-0.1,1,0c1.3,0.4,2.4,1.2,3.4,2.1
			c0.9,0.5,1.7,1.1,2.4,1.9c0.4,0.2,0.8,0.5,1.2,0.8c0.4,0.6,0.6,1.2,0.6,1.9v0.4c0.3-0.4,0.6-0.8,1-1.2v-32.6c0-1,0.3-2,0.9-2.8
			c0.5-0.8,1.3-1.5,2.2-1.9c1-0.4,2-0.5,2.9-0.3c1,0.2,1.9,0.7,2.6,1.4l16.1,16.1l41.4,41.6h47.4c6.7,0,13.3-1.7,19.2-4.9
			s10.9-7.8,14.5-13.5c0.4-0.5,0.9-0.9,1.5-1.1c0.6-0.3,1.3-0.3,1.9-0.1c0.6,0.2,1.2,0.6,1.6,1.1c0.4,0.5,0.6,1.1,0.6,1.8v25h1
			v-68.2L197.8,235.3z M108.2,145.8v77.5L98,213.1v-77.5L108.2,145.8z"/>
	</g>
	<g>
		<g>
			<g>
				<defs>
					<rect id="SVGID_00000024719864182493367740000003961957222153112496_" x="-509.8" width="1364.3" height="336.5"/>
				</defs>
				<clipPath id="SVGID_00000125578880365194539740000003025243831746057090_">
					<use xlink:href="#SVGID_00000024719864182493367740000003961957222153112496_"  style="overflow:visible;"/>
				</clipPath>
			</g>
		</g>
	</g>
	<g>
		<g>
			<g>
				<defs>
					<rect id="SVGID_00000099650705324526696280000010481439455826657950_" x="-413.3" width="1364.3" height="336.5"/>
				</defs>
				<clipPath id="SVGID_00000088816279981257742610000016607299912293738921_">
					<use xlink:href="#SVGID_00000099650705324526696280000010481439455826657950_"  style="overflow:visible;"/>
				</clipPath>
			</g>
		</g>
	</g>
</g>
</svg>
