<?xml version="1.0" encoding="utf-8"?>
<!-- Generator: Adobe Adobe Illustrator 29.2.0, SVG Export Plug-In . SVG Version: 6.00 Build 0)  -->
<svg version="1.1" id="Layer_1" xmlns="http://www.w3.org/2000/svg" xmlns:xlink="http://www.w3.org/1999/xlink" x="0px" y="0px"
	 width="932.3px" height="355.2px" viewBox="0 0 932.3 355.2" style="enable-background:new 0 0 932.3 355.2;" xml:space="preserve"
	>
<style type="text/css">
	.st0{clip-path:url(#SVGID_00000005947790735722893500000005955982245728217767_);}
	.st1{fill:#FF98A2;}
	.st2{fill:none;}
	.st3{clip-path:url(#SVGID_00000001638782367633665170000011135678870802962600_);}
	.st4{clip-path:url(#SVGID_00000003798132944511793450000012481776658477235113_);}
	.st5{clip-path:url(#SVGID_00000181769547138788194260000014158724652930688940_);}
	.st6{clip-path:url(#SVGID_00000152968522761902828030000004058211699233784492_);}
	.st7{clip-path:url(#SVGID_00000047744949362273025820000004316196008443908513_);}
	.st8{clip-path:url(#SVGID_00000006673130440980688160000007506763522949320104_);}
	.st9{clip-path:url(#SVGID_00000095323409915590834280000007450149692058248589_);}
	.st10{clip-path:url(#SVGID_00000142174362003995834250000014844395537537380992_);}
	.st11{clip-path:url(#SVGID_00000081634322546924126710000011796470023085085868_);}
</style>
<g>
	<defs>
		<rect id="SVGID_1_" x="-51.6" width="1360" height="335.4"/>
	</defs>
	<clipPath id="SVGID_00000031180623670255890740000013960774884894085055_">
		<use xlink:href="#SVGID_1_"  style="overflow:visible;"/>
	</clipPath>
	<g style="clip-path:url(#SVGID_00000031180623670255890740000013960774884894085055_);">
		<path class="st1" d="M214.6,0.4v25c0,0.7-0.2,1.3-0.6,1.8c-0.4,0.5-1,0.9-1.6,1.1c-0.6,0.2-1.3,0.2-1.9-0.1
			c-0.6-0.2-1.1-0.6-1.5-1.1c-3.6-5.7-8.6-10.3-14.5-13.5c-5.9-3.2-12.5-4.9-19.2-4.9h-47.4L86.5,50.3L70.4,66.4
			c-0.7,0.7-1.6,1.2-2.6,1.4c-0.9,0.2-1.9,0.1-2.9-0.3c-0.9-0.4-1.7-1.1-2.2-1.9c-0.6-0.8-0.9-1.8-0.9-2.8V30.2
			c-0.4-0.4-0.7-0.8-1-1.2v0.4c0,0.7-0.2,1.3-0.6,1.9c-0.5,0.5-1.1,0.9-1.7,1c-0.6,0.2-1.2,0.1-1.7-0.1
			c-15.4,13.1-31.1,26-46.7,38.8c0.4,1.1,0.7,2.2,0.8,3.5c0.4,3.2,0.6,6.5,0.6,9.8v185.5c1.1-0.1,2.2-0.2,3.3-0.3
			c0.2-0.3,0.4-0.5,0.6-0.8l48.1-48.2c0.7-0.7,1.6-1.2,2.6-1.4s2-0.1,2.9,0.3c0.9,0.4,1.7,1,2.3,1.9c0.5,0.8,0.8,1.8,0.8,2.8v42.8
			c1.1,0,2.3,0.1,3.4,0.3l41.7-41.7c3.4-3.4,5.3-8,5.3-12.8V84.8c0-0.7,0.1-1.3,0.3-1.9c0.3-0.6,0.7-1.2,1.1-1.7l23.4-23.3
			c4.7,0.1,9.3,2,12.7,5.4c3.4,3.4,5.2,8,5.2,12.7v36.5c0,1.5-0.3,3.1-0.9,4.6c-0.6,1.4-1.5,2.8-2.6,3.9l-3.3,3.3l0.6,0.8l56.6-56.5
			V0.4H214.6z M72.1,210.5l-10.2,10.2v-77.5L72.1,133V210.5z M138.6,63.9c-0.2,1-0.7,1.9-1.4,2.6l-66.7,66.7
			c-0.7,0.7-1.6,1.2-2.6,1.4c-0.9,0.2-2,0.1-2.9-0.3c-0.9-0.4-1.7-1-2.2-1.9c-0.6-0.8-0.9-1.8-0.9-2.8V76.3l18.4-18.4h53.4
			c1,0,1.9,0.3,2.8,0.9c0.8,0.5,1.4,1.3,1.8,2.2C138.7,61.9,138.8,63,138.6,63.9z"/>
	</g>
</g>
<g>
	<polygon class="st2" points="72.1,222.2 61.9,212 61.9,134.5 72.1,144.7 	"/>
	<path class="st2" d="M138.6,291.3c-0.2-1-0.7-1.9-1.4-2.6l-9.1-9.1c0.4,0.5,0.5,1.4,0.2,1.9c-0.3,0.7-1,1.2-1.8,1.2
		c-1.5,0-2.9-0.4-4.1-1.1c-0.7,0.3-1.6,0.1-2.2-0.5c-0.7-0.7-1.5-1.3-2.1-1.9c-0.4-0.4-0.6-1-0.6-1.6c-0.2-0.5-0.5-0.9-0.7-1.4
		c0,0,0,0,0,0c-0.2-0.3-0.3-0.6-0.4-0.9c-0.2-0.5-0.3-1-0.3-1.5c0-0.5,0.2-1,0.6-1.4c0.4-0.4,0.9-0.6,1.4-0.6c0,0,0.1,0,0.1,0
		c0.3-0.1,0.6-0.2,0.9-0.2c0.5,0,1.1,0.2,1.4,0.6c1.5,1.5,2.9,2.9,4.3,4.5c0.2,0.2,0.3,0.4,0.4,0.6c0.8,0.7,1.7,1.3,2.5,2L70.5,222
		c-0.7-0.7-1.6-1.2-2.6-1.4c-0.9-0.2-2-0.1-2.9,0.3c-0.9,0.4-1.7,1-2.2,1.9c-0.6,0.8-0.9,1.8-0.9,2.8l0,53.3l18.4,18.4l53.4,0
		c1,0,1.9-0.3,2.8-0.9c0.8-0.5,1.4-1.3,1.8-2.2C138.7,293.3,138.8,292.2,138.6,291.3z"/>
	<path class="st2" d="M1308.4,19.8l-1360,0l0,335.4l1360,0L1308.4,19.8z M215.6,354.8h-1l0-25c0-0.7-0.2-1.3-0.6-1.8
		c-0.4-0.5-1-0.9-1.6-1.1c-0.6-0.2-1.3-0.2-1.9,0.1c-0.6,0.2-1.1,0.6-1.5,1.1c-3.6,5.7-8.6,10.3-14.5,13.5s-12.5,4.9-19.2,4.9
		l-47.4,0l-41.4-41.6l-16.1-16.1c-0.7-0.7-1.6-1.2-2.6-1.4c-0.9-0.2-1.9-0.1-2.9,0.3c-0.9,0.4-1.7,1.1-2.2,1.9
		c-0.6,0.8-0.9,1.8-0.9,2.8V325c-0.4,0.4-0.7,0.8-1,1.2v-0.4c0-0.7-0.2-1.3-0.6-1.9c-0.4-0.4-0.8-0.6-1.2-0.8
		c2.7,3.2,3.2,8.5,0.2,11.6c-0.8,0.8-2,0.7-2.8,0c-0.8-0.7-0.7-2.1,0-2.8c0.1-0.1,0.2-0.2,0.3-0.3c0,0,0,0-0.1,0.1
		c-0.1,0.1-0.2,0.2,0,0c0,0,0-0.1,0.1-0.1c0.1-0.2,0.2-0.4,0.3-0.6c-0.7-0.3-1.3-1-1.2-1.8c0.1-0.4,0.1-0.9,0.1-1.3
		c0-0.1,0-0.3,0-0.3c0-0.1,0-0.2-0.1-0.4c0-0.1-0.1-0.3-0.1-0.4c0,0,0-0.1,0-0.1c0-0.1-0.1-0.2-0.1-0.3c-0.1-0.3-0.3-0.5-0.4-0.7
		c-0.1-0.1-0.2-0.2-0.2-0.3c0,0-0.1-0.1-0.1-0.1c-0.2-0.2-0.4-0.4-0.6-0.6c0,0-0.1-0.1-0.1-0.1c-0.9-0.1-1.5-0.8-1.7-1.5
		c-0.1,0-0.1,0-0.2-0.1c-1.1-0.4-1.7-1.3-1.4-2.5c0.2-0.7,0.7-1.2,1.4-1.4c-13.9-11.8-28-23.4-42.1-34.9c0.4-1.1,0.7-2.2,0.8-3.5
		c0.4-3.2,0.6-6.5,0.6-9.8l0-185.5c1.1,0.1,2.2,0.2,3.3,0.3c0.2,0.3,0.4,0.5,0.6,0.8l48.1,48.2c0.7,0.7,1.6,1.2,2.6,1.4
		s2,0.1,2.9-0.3c0.9-0.4,1.7-1,2.3-1.9c0.5-0.8,0.8-1.8,0.8-2.8l0-42.8c1.1,0,2.3-0.1,3.4-0.3l41.7,41.7c3.4,3.4,5.3,8,5.3,12.8
		l0,127.9c0,0.7,0.1,1.3,0.3,1.9c0.1,0.2,0.2,0.4,0.4,0.6c0.1-0.4,0.3-0.7,0.5-1c0.3-0.4,0.9-0.6,1.4-0.6c0.1,0,0.3,0,0.4,0
		c0.1,0,0.3,0,0.4,0c0.3,0,0.5,0,0.8,0.2c0.2,0.1,0.5,0.2,0.6,0.4c0.7,0.9,1.5,1.9,2.3,2.7c0.4,0.4,0.6,0.9,0.6,1.4
		c0,0.4-0.2,0.9-0.4,1.2c-0.1,0.2-0.3,0.4-0.6,0.5c-0.2,0.1-0.3,0.1-0.5,0.2c-0.3,0.1-0.5,0.1-0.8,0l19.3,19.2
		c4.7-0.1,9.3-2,12.7-5.4c3.4-3.4,5.2-8,5.2-12.7l0-36.5c0-1.5-0.3-3.1-0.9-4.6c-0.6-1.4-1.5-2.8-2.6-3.9l-3.3-3.3l0.6-0.8
		l56.6,56.5V354.8z M272.9,236.8c-2.8-0.9-5.7-1.8-8.6-2.6c-0.6,0.4-1.2,0.7-1.8,1c2.9,1.9,5.8,3.8,8.6,5.7c2.1,1.4,0.1,4.9-2,3.5
		c-4.7-3.2-9.5-6.2-14.2-9.4c-0.7,0.6-1.5,1.2-2.3,1.8c-2.2,1.4-4.2-2.1-2-3.5c0.3-0.2,0.6-0.4,0.9-0.6c-3.3-2.2-6.5-4.5-9.7-6.9
		c-1.6-1.2-1-3.5,1-3.7c2.7-0.3,5.5-0.2,8.2,0.1c1.1-3.1,3.3-5.7,6.6-6.6c1.1-0.3,2.1,0.4,2.5,1.4c0.5,1.5,0.7,3,0.7,4.5
		c0.6,0.1,1.1,0.3,1.7,0.7c0.4-0.4,0.7-0.8,0.8-1.4c0,0,0-0.1,0-0.1c0,0,0,0,0-0.1c0-0.1,0-0.4,0-0.1c-0.1-0.5-0.1-0.4-0.3-0.8
		c-1-1.6,1.1-3.9,2.7-2.7c3.6,2.5,4.7,6.9,3.4,10.9c-0.1,0.3-0.2,0.6-0.3,0.9c2.2,1.4,4.3,3.1,6.1,4.9
		C276.3,234.8,274.9,237.4,272.9,236.8z"/>
	<path class="st1" d="M119.3,270.8v0.8c0.4,0.1,0.9,0.3,1.2,0.6c1.5,1.5,2.9,2.9,4.3,4.5c0.2,0.2,0.3,0.4,0.4,0.6
		c0.6,0.5,1.2,0.9,1.8,1.4c0,0,0-0.1,0-0.1L119.3,270.8z"/>
	<path class="st1" d="M161.7,234.2c1.1,1.1,2,2.5,2.6,3.9c0.6,1.5,0.9,3.1,0.9,4.6l0,36.5c0,4.7-1.8,9.3-5.2,12.7
		c-3.4,3.4-8,5.3-12.7,5.4L128,278.1c0,0,0,0,0,0c-0.3,0-0.5-0.1-0.7-0.2c-0.1,0-0.1-0.1-0.2-0.2c0,0,0,0.1,0,0.1
		c0,0.2,0,0.5-0.1,0.7l0.7,0.7c0.1,0.1,0.1,0.1,0.2,0.2c0.1,0.1,0.1,0.2,0.2,0.2l9.1,9.1c0.7,0.7,1.2,1.6,1.4,2.6
		c0.2,0.9,0.1,2-0.3,2.9c-0.4,0.9-1,1.7-1.8,2.2c-0.9,0.6-1.8,0.9-2.8,0.9l-53.4,0l-18.4-18.4l0-53.3c0-1,0.3-2,0.9-2.8
		c0.5-0.9,1.3-1.5,2.2-1.9c0.9-0.4,2-0.5,2.9-0.3c1,0.2,1.9,0.7,2.6,1.4l48.8,48.8l0-120.9c0-6.7-0.7-13.4-2.1-20.2L75.5,88
		c-1.1,0.1-2.3,0.2-3.4,0.3l0,42.8c0,1-0.3,2-0.8,2.8c-0.6,0.9-1.4,1.5-2.3,1.9c-0.9,0.4-1.9,0.5-2.9,0.3s-1.9-0.7-2.6-1.4
		L15.4,86.5c-0.2-0.2-0.4-0.5-0.6-0.8c-1.1-0.1-2.2-0.2-3.3-0.3l0,185.5c0,3.3-0.2,6.6-0.6,9.8c-0.2,1.2-0.5,2.4-0.8,3.5
		c14.1,11.5,28.2,23.1,42.1,34.9c0.3-0.1,0.7-0.1,1,0c1.3,0.4,2.4,1.2,3.4,2.1c0.9,0.5,1.7,1.1,2.4,1.9c0.4,0.2,0.8,0.5,1.2,0.8
		c0.4,0.6,0.6,1.2,0.6,1.9v0.4c0.3-0.4,0.6-0.8,1-1.2v-32.6c0-1,0.3-2,0.9-2.8c0.5-0.8,1.3-1.5,2.2-1.9c1-0.4,2-0.5,2.9-0.3
		c1,0.2,1.9,0.7,2.6,1.4l16.1,16.1l41.4,41.6l47.4,0c6.7,0,13.3-1.7,19.2-4.9s10.9-7.8,14.5-13.5c0.4-0.5,0.9-0.9,1.5-1.1
		c0.6-0.3,1.3-0.3,1.9-0.1c0.6,0.2,1.2,0.6,1.6,1.1c0.4,0.5,0.6,1.1,0.6,1.8l0,25h1v-68.2L161.7,234.2z M72.1,144.7l0,77.5L61.9,212
		l0-77.5L72.1,144.7z"/>
</g>
<g>
	<g>
		<defs>
			<rect id="SVGID_00000020358110238132055060000001798503945342431120_" x="-545.9" y="-1.1" width="1364.3" height="336.5"/>
		</defs>
		<clipPath id="SVGID_00000167377633991303084330000011334745466169587630_">
			<use xlink:href="#SVGID_00000020358110238132055060000001798503945342431120_"  style="overflow:visible;"/>
		</clipPath>
		<g style="clip-path:url(#SVGID_00000167377633991303084330000011334745466169587630_);">
			<path class="st1" d="M556.5,283.6L571,269l-0.7-0.7l-3.6,3.6c-3.4,3.4-8,5.4-12.8,5.4h-95.5c-1,0-2-0.3-2.8-0.9
				c-0.8-0.5-1.5-1.3-1.9-2.3c-0.3-0.9-0.4-1.9-0.3-2.9c0.2-0.9,0.7-1.8,1.4-2.5l61.1-61.1l-0.7-0.8L508,214c-0.5,0.4-1,0.7-1.6,0.8
				c-0.6,0.2-1.2,0.1-1.7-0.1c-0.6-0.3-1.1-0.7-1.4-1.1c-0.3-0.5-0.5-1.1-0.5-1.7V63.1l6.4-6.4H545l56.8-56.8l-0.7-0.7l-3.2,3.1
				c-1.6,1.7-3.6,3-5.8,3.9c-2.2,0.9-4.6,1.4-7,1.4H384.4l-57.3,57.3l0.7,0.7l3.5-3.4c3.4-3.3,7.9-5.2,12.7-5.2l90.2-0.1
				c1,0,2,0.2,2.8,0.8c0.8,0.6,1.5,1.3,1.9,2.3c0.4,0.9,0.5,1.9,0.3,2.9c-0.2,0.9-0.7,1.8-1.4,2.5l-60.3,60.3l0.7,0.7l7.1-7.1
				c0.5-0.4,1-0.7,1.6-0.8c0.6-0.1,1.2-0.1,1.7,0.2c0.6,0.2,1,0.6,1.4,1.1c0.3,0.5,0.5,1.1,0.5,1.7v148.4l-7.4,7.4h-30.9l-58,57.4
				l0.7,0.7l3-3c3.4-3.4,8-5.2,12.7-5.2h202.6l28.8-29.1C545.7,292.9,550.8,287.6,556.5,283.6z M441.1,63.7l6.8-6.9h47.7
				c1,0,1.9,0.3,2.8,0.8c0.8,0.6,1.4,1.4,1.8,2.3c0.4,0.9,0.5,1.9,0.3,2.9c-0.2,1-0.7,1.9-1.4,2.6l-49.4,49.4
				c-0.7,0.7-1.6,1.1-2.5,1.3c-1,0.2-2,0.1-3-0.3c-0.9-0.3-1.7-1-2.2-1.8c-0.6-0.8-0.9-1.8-0.9-2.8V63.7z M452.2,269.7l-7.5,7.6
				h-47.9c-1,0-2-0.3-2.8-0.9c-0.8-0.5-1.5-1.3-1.8-2.2c-0.4-0.9-0.5-2-0.3-2.9c0.2-1,0.6-1.9,1.3-2.6l50.4-50.4
				c0.8-0.7,1.6-1.2,2.6-1.4c1-0.2,2-0.1,2.9,0.3c1,0.4,1.7,1,2.3,1.9c0.6,0.8,0.8,1.8,0.8,2.8V269.7z M452.2,208.3l-11.1,11v-94.5
				l11.1-11.1V208.3z"/>
		</g>
	</g>
</g>
<g>
	<g>
		<defs>
			<rect id="SVGID_00000054986957423359355970000000743132931662285475_" x="-449.4" y="-1.1" width="1364.3" height="336.5"/>
		</defs>
		<clipPath id="SVGID_00000041270256342186682520000016142654402944458670_">
			<use xlink:href="#SVGID_00000054986957423359355970000000743132931662285475_"  style="overflow:visible;"/>
		</clipPath>
		<g style="clip-path:url(#SVGID_00000041270256342186682520000016142654402944458670_);">
			<path class="st1" d="M878.8,127.7l-70.1-10.4c-0.9-0.2-1.8-0.6-2.5-1.2c-0.7-0.6-1.2-1.3-1.5-2.2c-0.3-0.9-0.4-1.9-0.1-2.8
				c0.2-0.9,0.6-1.7,1.3-2.4l109-109l-0.7-0.7l-3.4,3.4c-1.7,1.7-3.7,3-5.9,3.9c-2.2,0.9-4.6,1.4-7,1.4H763.6L655.8,115.5v7.7
				c0,8.1,2.9,16.1,8.2,22.2c5.3,6.2,12.6,10.2,20.7,11.4c0.8,0.1,1.6,0.5,2.2,1c0.6,0.5,1,1.1,1.3,1.9c0.2,0.8,0.2,1.6,0.1,2.3
				c-0.2,0.8-0.6,1.5-1.2,2.1l-53.3,53.3l0.7,0.8l3.1-3.2c1.4-1.3,3-2.3,4.8-2.9c1.8-0.6,3.7-0.8,5.6-0.5l85.8,12.9
				c0.9,0.1,1.7,0.5,2.5,1.1c0.7,0.6,1.2,1.4,1.5,2.3c0.3,0.9,0.3,1.8,0.1,2.7c-0.2,0.9-0.7,1.8-1.3,2.4l-102,101.6l0.7,0.7l3-2.9
				c3.4-3.4,8-5.3,12.8-5.3H799c0.3,0,0.5-0.1,0.7-0.3l114.2-113.1v-45.3c0-9.8-3.6-19.4-10-26.9
				C897.4,134.2,888.5,129.2,878.8,127.7z M844.2,56.7c1,0,2,0.3,2.8,0.8c0.9,0.6,1.5,1.4,1.9,2.3c0.4,0.9,0.5,1.9,0.3,2.9
				c-0.2,1-0.7,1.9-1.4,2.6l-50.3,50.3l-42.7-6.3c-0.9-0.2-1.8-0.6-2.5-1.2c-0.7-0.6-1.2-1.4-1.5-2.2c-0.3-0.9-0.3-1.9-0.1-2.8
				c0.2-0.9,0.7-1.7,1.3-2.4l43.8-43.8L844.2,56.7z M708.8,63.5l6.5-6.5l66.8-0.1c1,0,2,0.3,2.8,0.8c0.8,0.6,1.5,1.3,1.8,2.3
				c0.4,0.9,0.5,1.9,0.3,2.9c-0.2,1-0.6,1.9-1.3,2.6l-42.1,42l-25.2-3.7c-2.6-0.4-5.1-1.8-6.9-3.9c-1.8-2-2.7-4.7-2.7-7.4V63.5z
				 M686.3,166.4l8.1-8l90.6,13.5c1.1,0.2,2,0.6,2.9,1.3c0.8,0.7,1.4,1.6,1.7,2.6c0.3,1,0.4,2.1,0.1,3.2c-0.2,1-0.7,1.9-1.5,2.7
				L686.3,166.4z M706,277.2c-1,0-2-0.3-2.8-0.9c-0.9-0.5-1.5-1.3-1.9-2.2c-0.4-1-0.5-2-0.3-3c0.2-0.9,0.7-1.8,1.4-2.5l42.4-42.3
				l44.1,6.6c0.9,0.1,1.8,0.5,2.5,1.1s1.2,1.4,1.5,2.3c0.3,0.9,0.4,1.9,0.1,2.8c-0.2,0.9-0.6,1.7-1.3,2.4l-36,35.7H706z
				 M856.5,268.6l-8.7,8.5h-78.2c-1,0-2-0.3-2.8-0.8c-0.9-0.6-1.5-1.4-1.9-2.3c-0.4-0.9-0.5-1.9-0.3-2.9c0.2-1,0.7-1.9,1.4-2.6v0.1
				l71.5-71.3c0.7-0.6,1.1-1.5,1.4-2.4c0.2-0.9,0.1-1.8-0.2-2.7c-0.2-0.9-0.8-1.7-1.5-2.3c-0.7-0.6-1.6-1-2.5-1.1l-45.2-6.9l7.8-7.6
				c0.1-0.2,0.2-0.2,0.4-0.3c0.1,0,0.3-0.1,0.4,0l45.7,6.8c3.5,0.5,6.8,2.3,9.1,5c2.3,2.8,3.6,6.2,3.6,9.8V268.6z"/>
		</g>
	</g>
</g>
</svg>
