<?xml version="1.0" encoding="utf-8"?>
<!-- Generator: Adobe Adobe Illustrator 29.2.0, SVG Export Plug-In . SVG Version: 6.00 Build 0)  -->
<svg version="1.1" id="Layer_1" xmlns="http://www.w3.org/2000/svg" xmlns:xlink="http://www.w3.org/1999/xlink" x="0px" y="0px"
	 width="319.9px" height="336.5px" viewBox="0 0 319.9 336.5" style="enable-background:new 0 0 319.9 336.5;" xml:space="preserve"
	>
<style type="text/css">
	.st0{clip-path:url(#SVGID_00000075159894993539393730000000572262883036458936_);}
	.st1{fill:#FF98A2;}
	.st2{fill:none;}
	.st3{clip-path:url(#SVGID_00000153704299436215665390000013939794720712728215_);}
	.st4{clip-path:url(#SVGID_00000065788142271864168590000016040767838444053934_);}
	.st5{clip-path:url(#SVGID_00000039819452775974357940000004573910228758576309_);}
	.st6{clip-path:url(#SVGID_00000080188079888179817790000001159845203346816394_);}
	.st7{clip-path:url(#SVGID_00000041986127135433414660000011866997733536837307_);}
	.st8{clip-path:url(#SVGID_00000073708646146386270020000018009219480717205951_);}
	.st9{clip-path:url(#SVGID_00000034083308800099283520000001915087630496567998_);}
	.st10{clip-path:url(#SVGID_00000121251568643285379820000013859700366806779009_);}
	.st11{clip-path:url(#SVGID_00000161605684248289732000000016596753011153329796_);}
</style>
<g>
	<g>
		<defs>
			<rect id="SVGID_00000118369230710962097130000018206498647351277738_" x="-1070" y="0" width="1364.3" height="336.5"/>
		</defs>
		<clipPath id="SVGID_00000052815701916976642580000004622454971330874766_">
			<use xlink:href="#SVGID_00000118369230710962097130000018206498647351277738_"  style="overflow:visible;"/>
		</clipPath>
		<g style="clip-path:url(#SVGID_00000052815701916976642580000004622454971330874766_);">
			<path class="st1" d="M258.2,128.8l-70.1-10.4c-0.9-0.2-1.8-0.6-2.5-1.2c-0.7-0.6-1.2-1.3-1.5-2.2c-0.3-0.9-0.4-1.9-0.1-2.8
				c0.2-0.9,0.6-1.7,1.3-2.4l109-109L293.6,0l-3.4,3.4c-1.7,1.7-3.7,3-5.9,3.9c-2.2,0.9-4.6,1.4-7,1.4H143L35.2,116.6v7.7
				c0,8.1,2.9,16.1,8.2,22.2c5.3,6.2,12.6,10.2,20.7,11.4c0.8,0.1,1.6,0.5,2.2,1c0.6,0.5,1,1.1,1.3,1.9c0.2,0.8,0.2,1.6,0.1,2.3
				c-0.2,0.8-0.6,1.5-1.2,2.1l-53.3,53.3l0.7,0.8l3.1-3.2c1.4-1.3,3-2.3,4.8-2.9c1.8-0.6,3.7-0.8,5.6-0.5l85.8,12.9
				c0.9,0.1,1.7,0.5,2.5,1.1c0.7,0.6,1.2,1.4,1.5,2.3c0.3,0.9,0.3,1.8,0.1,2.7c-0.2,0.9-0.7,1.8-1.3,2.4L14,335.8l0.7,0.7l3-2.9
				c3.4-3.4,8-5.3,12.8-5.3h147.9c0.3,0,0.5-0.1,0.7-0.3l114.2-113.1v-45.3c0-9.8-3.6-19.4-10-26.9
				C276.9,135.2,267.9,130.3,258.2,128.8z M223.6,57.8c1,0,2,0.3,2.8,0.8c0.9,0.6,1.5,1.4,1.9,2.3c0.4,0.9,0.5,1.9,0.3,2.9
				c-0.2,1-0.7,1.9-1.4,2.6l-50.3,50.3l-42.7-6.3c-0.9-0.2-1.8-0.6-2.5-1.2c-0.7-0.6-1.2-1.4-1.5-2.2c-0.3-0.9-0.3-1.9-0.1-2.8
				c0.2-0.9,0.7-1.7,1.3-2.4l43.8-43.8L223.6,57.8z M88.3,64.6l6.5-6.5l66.8-0.1c1,0,2,0.3,2.8,0.8c0.8,0.6,1.5,1.3,1.8,2.3
				c0.4,0.9,0.5,1.9,0.3,2.9c-0.2,1-0.6,1.9-1.3,2.6l-42.1,42l-25.2-3.7c-2.6-0.4-5.1-1.8-6.9-3.9c-1.8-2-2.7-4.7-2.7-7.4V64.6z
				 M65.7,167.4l8.1-8l90.6,13.5c1.1,0.2,2,0.6,2.9,1.3c0.8,0.7,1.4,1.6,1.7,2.6c0.3,1,0.4,2.1,0.1,3.2c-0.2,1-0.7,1.9-1.5,2.7
				L65.7,167.4z M85.4,278.3c-1,0-2-0.3-2.8-0.9c-0.9-0.5-1.5-1.3-1.9-2.2c-0.4-1-0.5-2-0.3-3c0.2-0.9,0.7-1.8,1.4-2.5l42.4-42.3
				l44.1,6.6c0.9,0.1,1.8,0.5,2.5,1.1s1.2,1.4,1.5,2.3c0.3,0.9,0.4,1.9,0.1,2.8c-0.2,0.9-0.6,1.7-1.3,2.4l-36,35.7H85.4z
				 M235.9,269.7l-8.7,8.5h-78.2c-1,0-2-0.3-2.8-0.8c-0.9-0.6-1.5-1.4-1.9-2.3c-0.4-0.9-0.5-1.9-0.3-2.9c0.2-1,0.7-1.9,1.4-2.6v0.1
				l71.5-71.3c0.7-0.6,1.1-1.5,1.4-2.4c0.2-0.9,0.1-1.8-0.2-2.7c-0.2-0.9-0.8-1.7-1.5-2.3c-0.7-0.6-1.6-1-2.5-1.1l-45.2-6.9l7.8-7.6
				c0.1-0.2,0.2-0.2,0.4-0.3c0.1,0,0.3-0.1,0.4,0l45.7,6.8c3.5,0.5,6.8,2.3,9.1,5c2.3,2.8,3.6,6.2,3.6,9.8V269.7z"/>
		</g>
	</g>
</g>
<g>
	<g>
		<defs>
			<rect id="SVGID_00000149341697347545091350000013617174866795840907_" x="-1070" y="0" width="1364.3" height="336.5"/>
		</defs>
		<clipPath id="SVGID_00000033369834319313947980000002077228502976148614_">
			<use xlink:href="#SVGID_00000149341697347545091350000013617174866795840907_"  style="overflow:visible;"/>
		</clipPath>
		<g style="clip-path:url(#SVGID_00000033369834319313947980000002077228502976148614_);">
			<path class="st1" d="M258.2,128.8l-70.1-10.4c-0.9-0.2-1.8-0.6-2.5-1.2c-0.7-0.6-1.2-1.3-1.5-2.2c-0.3-0.9-0.4-1.9-0.1-2.8
				c0.2-0.9,0.6-1.7,1.3-2.4l109-109L293.6,0l-3.4,3.4c-1.7,1.7-3.7,3-5.9,3.9c-2.2,0.9-4.6,1.4-7,1.4H143L35.2,116.6v7.7
				c0,8.1,2.9,16.1,8.2,22.2c5.3,6.2,12.6,10.2,20.7,11.4c0.8,0.1,1.6,0.5,2.2,1c0.6,0.5,1,1.1,1.3,1.9c0.2,0.8,0.2,1.6,0.1,2.3
				c-0.2,0.8-0.6,1.5-1.2,2.1l-53.3,53.3l0.7,0.8l3.1-3.2c1.4-1.3,3-2.3,4.8-2.9c1.8-0.6,3.7-0.8,5.6-0.5l85.8,12.9
				c0.9,0.1,1.7,0.5,2.5,1.1c0.7,0.6,1.2,1.4,1.5,2.3c0.3,0.9,0.3,1.8,0.1,2.7c-0.2,0.9-0.7,1.8-1.3,2.4L14,335.8l0.7,0.7l3-2.9
				c3.4-3.4,8-5.3,12.8-5.3h147.9c0.3,0,0.5-0.1,0.7-0.3l114.2-113.1v-45.3c0-9.8-3.6-19.4-10-26.9
				C276.9,135.2,267.9,130.3,258.2,128.8z M223.6,57.8c1,0,2,0.3,2.8,0.8c0.9,0.6,1.5,1.4,1.9,2.3c0.4,0.9,0.5,1.9,0.3,2.9
				c-0.2,1-0.7,1.9-1.4,2.6l-50.3,50.3l-42.7-6.3c-0.9-0.2-1.8-0.6-2.5-1.2c-0.7-0.6-1.2-1.4-1.5-2.2c-0.3-0.9-0.3-1.9-0.1-2.8
				c0.2-0.9,0.7-1.7,1.3-2.4l43.8-43.8L223.6,57.8z M88.3,64.6l6.5-6.5l66.8-0.1c1,0,2,0.3,2.8,0.8c0.8,0.6,1.5,1.3,1.8,2.3
				c0.4,0.9,0.5,1.9,0.3,2.9c-0.2,1-0.6,1.9-1.3,2.6l-42.1,42l-25.2-3.7c-2.6-0.4-5.1-1.8-6.9-3.9c-1.8-2-2.7-4.7-2.7-7.4V64.6z
				 M65.7,167.4l8.1-8l90.6,13.5c1.1,0.2,2,0.6,2.9,1.3c0.8,0.7,1.4,1.6,1.7,2.6c0.3,1,0.4,2.1,0.1,3.2c-0.2,1-0.7,1.9-1.5,2.7
				L65.7,167.4z M85.4,278.3c-1,0-2-0.3-2.8-0.9c-0.9-0.5-1.5-1.3-1.9-2.2c-0.4-1-0.5-2-0.3-3c0.2-0.9,0.7-1.8,1.4-2.5l42.4-42.3
				l44.1,6.6c0.9,0.1,1.8,0.5,2.5,1.1s1.2,1.4,1.5,2.3c0.3,0.9,0.4,1.9,0.1,2.8c-0.2,0.9-0.6,1.7-1.3,2.4l-36,35.7H85.4z
				 M235.9,269.7l-8.7,8.5h-78.2c-1,0-2-0.3-2.8-0.8c-0.9-0.6-1.5-1.4-1.9-2.3c-0.4-0.9-0.5-1.9-0.3-2.9c0.2-1,0.7-1.9,1.4-2.6v0.1
				l71.5-71.3c0.7-0.6,1.1-1.5,1.4-2.4c0.2-0.9,0.1-1.8-0.2-2.7c-0.2-0.9-0.8-1.7-1.5-2.3c-0.7-0.6-1.6-1-2.5-1.1l-45.2-6.9l7.8-7.6
				c0.1-0.2,0.2-0.2,0.4-0.3c0.1,0,0.3-0.1,0.4,0l45.7,6.8c3.5,0.5,6.8,2.3,9.1,5c2.3,2.8,3.6,6.2,3.6,9.8V269.7z"/>
		</g>
	</g>
</g>
</svg>
